<?xml version="1.0" standalone="no"?>
<!DOCTYPE svg PUBLIC "-//W3C//DTD SVG 1.1//EN" "http://www.w3.org/Graphics/SVG/1.1/DTD/svg11.dtd">
<svg width="870" height="600" version="1.1" xmlns="http://www.w3.org/2000/svg">
<rect width="870" height="600" x="0" y="0" style="fill:rgb(238,238,238);stroke:none"/>
<rect width="870" height="600" x="0" y="0" style="fill:rgb(255,255,255);stroke:none"/>
<text x="2" y="566" fill="rgb(0,0,0)" font-family="Arial" font-size="12">0</text>
<text x="2" y="514" fill="rgb(0,0,0)" font-family="Arial" font-size="12">10</text>
<text x="2" y="462" fill="rgb(0,0,0)" font-family="Arial" font-size="12">20</text>
<text x="2" y="410" fill="rgb(0,0,0)" font-family="Arial" font-size="12">30</text>
<text x="2" y="358" fill="rgb(0,0,0)" font-family="Arial" font-size="12">40</text>
<text x="2" y="306" fill="rgb(0,0,0)" font-family="Arial" font-size="12">50</text>
<text x="2" y="254" fill="rgb(0,0,0)" font-family="Arial" font-size="12">60</text>
<text x="2" y="202" fill="rgb(0,0,0)" font-family="Arial" font-size="12">70</text>
<text x="2" y="150" fill="rgb(0,0,0)" font-family="Arial" font-size="12">80</text>
<text x="2" y="98" fill="rgb(0,0,0)" font-family="Arial" font-size="12">90</text>
<text x="2" y="46" fill="rgb(0,0,0)" font-family="Arial" font-size="12">100</text>
<text x="347" y="30" fill="rgb(0,0,0)" font-family="Arial" font-size="12">Sequence content across all bases</text>
<line x1="26" y1="560" x2="860" y2="560" stroke="rgb(0,0,0)" stroke-width="1"/>
<line x1="26" y1="560" x2="26" y2="40" stroke="rgb(0,0,0)" stroke-width="1"/>
<text x="380" y="595" fill="rgb(0,0,0)" font-family="Arial" font-size="12">Position in read (bp)</text>
<text x="30" y="575" fill="rgb(0,0,0)" font-family="Arial" font-size="12">1</text>
<rect width="14" height="520" x="40" y="40" style="fill:rgb(230,230,230);stroke:none"/>
<text x="44" y="575" fill="rgb(0,0,0)" font-family="Arial" font-size="12">2</text>
<text x="58" y="575" fill="rgb(0,0,0)" font-family="Arial" font-size="12">3</text>
<rect width="14" height="520" x="68" y="40" style="fill:rgb(230,230,230);stroke:none"/>
<text x="72" y="575" fill="rgb(0,0,0)" font-family="Arial" font-size="12">4</text>
<text x="86" y="575" fill="rgb(0,0,0)" font-family="Arial" font-size="12">5</text>
<rect width="14" height="520" x="96" y="40" style="fill:rgb(230,230,230);stroke:none"/>
<text x="100" y="575" fill="rgb(0,0,0)" font-family="Arial" font-size="12">6</text>
<text x="114" y="575" fill="rgb(0,0,0)" font-family="Arial" font-size="12">7</text>
<rect width="14" height="520" x="124" y="40" style="fill:rgb(230,230,230);stroke:none"/>
<text x="128" y="575" fill="rgb(0,0,0)" font-family="Arial" font-size="12">8</text>
<text x="142" y="575" fill="rgb(0,0,0)" font-family="Arial" font-size="12">9</text>
<rect width="14" height="520" x="152" y="40" style="fill:rgb(230,230,230);stroke:none"/>
<text x="157" y="575" fill="rgb(0,0,0)" font-family="Arial" font-size="12">15-19</text>
<rect width="14" height="520" x="180" y="40" style="fill:rgb(230,230,230);stroke:none"/>
<rect width="14" height="520" x="208" y="40" style="fill:rgb(230,230,230);stroke:none"/>
<text x="199" y="575" fill="rgb(0,0,0)" font-family="Arial" font-size="12">30-34</text>
<rect width="14" height="520" x="236" y="40" style="fill:rgb(230,230,230);stroke:none"/>
<text x="241" y="575" fill="rgb(0,0,0)" font-family="Arial" font-size="12">45-49</text>
<rect width="14" height="520" x="264" y="40" style="fill:rgb(230,230,230);stroke:none"/>
<rect width="14" height="520" x="292" y="40" style="fill:rgb(230,230,230);stroke:none"/>
<text x="283" y="575" fill="rgb(0,0,0)" font-family="Arial" font-size="12">60-64</text>
<rect width="14" height="520" x="320" y="40" style="fill:rgb(230,230,230);stroke:none"/>
<text x="325" y="575" fill="rgb(0,0,0)" font-family="Arial" font-size="12">75-79</text>
<rect width="14" height="520" x="348" y="40" style="fill:rgb(230,230,230);stroke:none"/>
<rect width="14" height="520" x="376" y="40" style="fill:rgb(230,230,230);stroke:none"/>
<text x="367" y="575" fill="rgb(0,0,0)" font-family="Arial" font-size="12">90-94</text>
<rect width="14" height="520" x="404" y="40" style="fill:rgb(230,230,230);stroke:none"/>
<rect width="14" height="520" x="432" y="40" style="fill:rgb(230,230,230);stroke:none"/>
<text x="416" y="575" fill="rgb(0,0,0)" font-family="Arial" font-size="12">110-114</text>
<rect width="14" height="520" x="460" y="40" style="fill:rgb(230,230,230);stroke:none"/>
<rect width="14" height="520" x="488" y="40" style="fill:rgb(230,230,230);stroke:none"/>
<text x="472" y="575" fill="rgb(0,0,0)" font-family="Arial" font-size="12">130-134</text>
<rect width="14" height="520" x="516" y="40" style="fill:rgb(230,230,230);stroke:none"/>
<rect width="14" height="520" x="544" y="40" style="fill:rgb(230,230,230);stroke:none"/>
<text x="528" y="575" fill="rgb(0,0,0)" font-family="Arial" font-size="12">150-154</text>
<rect width="14" height="520" x="572" y="40" style="fill:rgb(230,230,230);stroke:none"/>
<rect width="14" height="520" x="600" y="40" style="fill:rgb(230,230,230);stroke:none"/>
<text x="584" y="575" fill="rgb(0,0,0)" font-family="Arial" font-size="12">170-174</text>
<rect width="14" height="520" x="628" y="40" style="fill:rgb(230,230,230);stroke:none"/>
<rect width="14" height="520" x="656" y="40" style="fill:rgb(230,230,230);stroke:none"/>
<text x="640" y="575" fill="rgb(0,0,0)" font-family="Arial" font-size="12">190-194</text>
<rect width="14" height="520" x="684" y="40" style="fill:rgb(230,230,230);stroke:none"/>
<rect width="14" height="520" x="712" y="40" style="fill:rgb(230,230,230);stroke:none"/>
<text x="696" y="575" fill="rgb(0,0,0)" font-family="Arial" font-size="12">210-214</text>
<rect width="14" height="520" x="740" y="40" style="fill:rgb(230,230,230);stroke:none"/>
<rect width="14" height="520" x="768" y="40" style="fill:rgb(230,230,230);stroke:none"/>
<text x="752" y="575" fill="rgb(0,0,0)" font-family="Arial" font-size="12">230-234</text>
<rect width="14" height="520" x="796" y="40" style="fill:rgb(230,230,230);stroke:none"/>
<rect width="14" height="520" x="824" y="40" style="fill:rgb(230,230,230);stroke:none"/>
<text x="808" y="575" fill="rgb(0,0,0)" font-family="Arial" font-size="12">250-251</text>
<line x1="26" y1="560" x2="860" y2="560" stroke="rgb(180,180,180)" stroke-width="1"/>
<line x1="26" y1="508" x2="860" y2="508" stroke="rgb(180,180,180)" stroke-width="1"/>
<line x1="26" y1="456" x2="860" y2="456" stroke="rgb(180,180,180)" stroke-width="1"/>
<line x1="26" y1="404" x2="860" y2="404" stroke="rgb(180,180,180)" stroke-width="1"/>
<line x1="26" y1="352" x2="860" y2="352" stroke="rgb(180,180,180)" stroke-width="1"/>
<line x1="26" y1="300" x2="860" y2="300" stroke="rgb(180,180,180)" stroke-width="1"/>
<line x1="26" y1="248" x2="860" y2="248" stroke="rgb(180,180,180)" stroke-width="1"/>
<line x1="26" y1="196" x2="860" y2="196" stroke="rgb(180,180,180)" stroke-width="1"/>
<line x1="26" y1="144" x2="860" y2="144" stroke="rgb(180,180,180)" stroke-width="1"/>
<line x1="26" y1="92" x2="860" y2="92" stroke="rgb(180,180,180)" stroke-width="1"/>
<line x1="26" y1="40" x2="860" y2="40" stroke="rgb(180,180,180)" stroke-width="1"/>
<line x1="33" y1="481" x2="47" y2="328" stroke="rgb(136,34,85)" stroke-width="1"/>
<line x1="47" y1="328" x2="61" y2="368" stroke="rgb(136,34,85)" stroke-width="1"/>
<line x1="61" y1="368" x2="75" y2="305" stroke="rgb(136,34,85)" stroke-width="1"/>
<line x1="75" y1="305" x2="89" y2="346" stroke="rgb(136,34,85)" stroke-width="1"/>
<line x1="89" y1="346" x2="103" y2="445" stroke="rgb(136,34,85)" stroke-width="1"/>
<line x1="103" y1="445" x2="117" y2="400" stroke="rgb(136,34,85)" stroke-width="1"/>
<line x1="117" y1="400" x2="131" y2="422" stroke="rgb(136,34,85)" stroke-width="1"/>
<line x1="131" y1="422" x2="145" y2="405" stroke="rgb(136,34,85)" stroke-width="1"/>
<line x1="145" y1="405" x2="159" y2="377" stroke="rgb(136,34,85)" stroke-width="1"/>
<line x1="159" y1="377" x2="173" y2="396" stroke="rgb(136,34,85)" stroke-width="1"/>
<line x1="173" y1="396" x2="187" y2="387" stroke="rgb(136,34,85)" stroke-width="1"/>
<line x1="187" y1="387" x2="201" y2="389" stroke="rgb(136,34,85)" stroke-width="1"/>
<line x1="201" y1="389" x2="215" y2="388" stroke="rgb(136,34,85)" stroke-width="1"/>
<line x1="215" y1="388" x2="229" y2="388" stroke="rgb(136,34,85)" stroke-width="1"/>
<line x1="229" y1="388" x2="243" y2="389" stroke="rgb(136,34,85)" stroke-width="1"/>
<line x1="243" y1="389" x2="257" y2="388" stroke="rgb(136,34,85)" stroke-width="1"/>
<line x1="257" y1="388" x2="271" y2="388" stroke="rgb(136,34,85)" stroke-width="1"/>
<line x1="271" y1="388" x2="285" y2="388" stroke="rgb(136,34,85)" stroke-width="1"/>
<line x1="285" y1="388" x2="299" y2="388" stroke="rgb(136,34,85)" stroke-width="1"/>
<line x1="299" y1="388" x2="313" y2="389" stroke="rgb(136,34,85)" stroke-width="1"/>
<line x1="313" y1="389" x2="327" y2="389" stroke="rgb(136,34,85)" stroke-width="1"/>
<line x1="327" y1="389" x2="341" y2="389" stroke="rgb(136,34,85)" stroke-width="1"/>
<line x1="341" y1="389" x2="355" y2="389" stroke="rgb(136,34,85)" stroke-width="1"/>
<line x1="355" y1="389" x2="369" y2="389" stroke="rgb(136,34,85)" stroke-width="1"/>
<line x1="369" y1="389" x2="383" y2="391" stroke="rgb(136,34,85)" stroke-width="1"/>
<line x1="383" y1="391" x2="397" y2="390" stroke="rgb(136,34,85)" stroke-width="1"/>
<line x1="397" y1="390" x2="411" y2="391" stroke="rgb(136,34,85)" stroke-width="1"/>
<line x1="411" y1="391" x2="425" y2="389" stroke="rgb(136,34,85)" stroke-width="1"/>
<line x1="425" y1="389" x2="439" y2="390" stroke="rgb(136,34,85)" stroke-width="1"/>
<line x1="439" y1="390" x2="453" y2="389" stroke="rgb(136,34,85)" stroke-width="1"/>
<line x1="453" y1="389" x2="467" y2="390" stroke="rgb(136,34,85)" stroke-width="1"/>
<line x1="467" y1="390" x2="481" y2="389" stroke="rgb(136,34,85)" stroke-width="1"/>
<line x1="481" y1="389" x2="495" y2="391" stroke="rgb(136,34,85)" stroke-width="1"/>
<line x1="495" y1="391" x2="509" y2="390" stroke="rgb(136,34,85)" stroke-width="1"/>
<line x1="509" y1="390" x2="523" y2="390" stroke="rgb(136,34,85)" stroke-width="1"/>
<line x1="523" y1="390" x2="537" y2="390" stroke="rgb(136,34,85)" stroke-width="1"/>
<line x1="537" y1="390" x2="551" y2="391" stroke="rgb(136,34,85)" stroke-width="1"/>
<line x1="551" y1="391" x2="565" y2="390" stroke="rgb(136,34,85)" stroke-width="1"/>
<line x1="565" y1="390" x2="579" y2="391" stroke="rgb(136,34,85)" stroke-width="1"/>
<line x1="579" y1="391" x2="593" y2="391" stroke="rgb(136,34,85)" stroke-width="1"/>
<line x1="593" y1="391" x2="607" y2="392" stroke="rgb(136,34,85)" stroke-width="1"/>
<line x1="607" y1="392" x2="621" y2="393" stroke="rgb(136,34,85)" stroke-width="1"/>
<line x1="621" y1="393" x2="635" y2="393" stroke="rgb(136,34,85)" stroke-width="1"/>
<line x1="635" y1="393" x2="649" y2="394" stroke="rgb(136,34,85)" stroke-width="1"/>
<line x1="649" y1="394" x2="663" y2="395" stroke="rgb(136,34,85)" stroke-width="1"/>
<line x1="663" y1="395" x2="677" y2="396" stroke="rgb(136,34,85)" stroke-width="1"/>
<line x1="677" y1="396" x2="691" y2="396" stroke="rgb(136,34,85)" stroke-width="1"/>
<line x1="691" y1="396" x2="705" y2="398" stroke="rgb(136,34,85)" stroke-width="1"/>
<line x1="705" y1="398" x2="719" y2="401" stroke="rgb(136,34,85)" stroke-width="1"/>
<line x1="719" y1="401" x2="733" y2="403" stroke="rgb(136,34,85)" stroke-width="1"/>
<line x1="733" y1="403" x2="747" y2="405" stroke="rgb(136,34,85)" stroke-width="1"/>
<line x1="747" y1="405" x2="761" y2="411" stroke="rgb(136,34,85)" stroke-width="1"/>
<line x1="761" y1="411" x2="775" y2="417" stroke="rgb(136,34,85)" stroke-width="1"/>
<line x1="775" y1="417" x2="789" y2="418" stroke="rgb(136,34,85)" stroke-width="1"/>
<line x1="789" y1="418" x2="803" y2="420" stroke="rgb(136,34,85)" stroke-width="1"/>
<line x1="803" y1="420" x2="817" y2="423" stroke="rgb(136,34,85)" stroke-width="1"/>
<line x1="817" y1="423" x2="831" y2="439" stroke="rgb(136,34,85)" stroke-width="1"/>
<line x1="33" y1="448" x2="47" y2="470" stroke="rgb(51,34,136)" stroke-width="1"/>
<line x1="47" y1="470" x2="61" y2="472" stroke="rgb(51,34,136)" stroke-width="1"/>
<line x1="61" y1="472" x2="75" y2="457" stroke="rgb(51,34,136)" stroke-width="1"/>
<line x1="75" y1="457" x2="89" y2="514" stroke="rgb(51,34,136)" stroke-width="1"/>
<line x1="89" y1="514" x2="103" y2="514" stroke="rgb(51,34,136)" stroke-width="1"/>
<line x1="103" y1="514" x2="117" y2="497" stroke="rgb(51,34,136)" stroke-width="1"/>
<line x1="117" y1="497" x2="131" y2="490" stroke="rgb(51,34,136)" stroke-width="1"/>
<line x1="131" y1="490" x2="145" y2="404" stroke="rgb(51,34,136)" stroke-width="1"/>
<line x1="145" y1="404" x2="159" y2="467" stroke="rgb(51,34,136)" stroke-width="1"/>
<line x1="159" y1="467" x2="173" y2="476" stroke="rgb(51,34,136)" stroke-width="1"/>
<line x1="173" y1="476" x2="187" y2="474" stroke="rgb(51,34,136)" stroke-width="1"/>
<line x1="187" y1="474" x2="201" y2="473" stroke="rgb(51,34,136)" stroke-width="1"/>
<line x1="201" y1="473" x2="215" y2="472" stroke="rgb(51,34,136)" stroke-width="1"/>
<line x1="215" y1="472" x2="229" y2="473" stroke="rgb(51,34,136)" stroke-width="1"/>
<line x1="229" y1="473" x2="243" y2="472" stroke="rgb(51,34,136)" stroke-width="1"/>
<line x1="243" y1="472" x2="257" y2="472" stroke="rgb(51,34,136)" stroke-width="1"/>
<line x1="257" y1="472" x2="271" y2="472" stroke="rgb(51,34,136)" stroke-width="1"/>
<line x1="271" y1="472" x2="285" y2="472" stroke="rgb(51,34,136)" stroke-width="1"/>
<line x1="285" y1="472" x2="299" y2="472" stroke="rgb(51,34,136)" stroke-width="1"/>
<line x1="299" y1="472" x2="313" y2="472" stroke="rgb(51,34,136)" stroke-width="1"/>
<line x1="313" y1="472" x2="327" y2="471" stroke="rgb(51,34,136)" stroke-width="1"/>
<line x1="327" y1="471" x2="341" y2="471" stroke="rgb(51,34,136)" stroke-width="1"/>
<line x1="341" y1="471" x2="355" y2="471" stroke="rgb(51,34,136)" stroke-width="1"/>
<line x1="355" y1="471" x2="369" y2="471" stroke="rgb(51,34,136)" stroke-width="1"/>
<line x1="369" y1="471" x2="383" y2="470" stroke="rgb(51,34,136)" stroke-width="1"/>
<line x1="383" y1="470" x2="397" y2="470" stroke="rgb(51,34,136)" stroke-width="1"/>
<line x1="397" y1="470" x2="411" y2="470" stroke="rgb(51,34,136)" stroke-width="1"/>
<line x1="411" y1="470" x2="425" y2="471" stroke="rgb(51,34,136)" stroke-width="1"/>
<line x1="425" y1="471" x2="439" y2="470" stroke="rgb(51,34,136)" stroke-width="1"/>
<line x1="439" y1="470" x2="453" y2="470" stroke="rgb(51,34,136)" stroke-width="1"/>
<line x1="453" y1="470" x2="467" y2="469" stroke="rgb(51,34,136)" stroke-width="1"/>
<line x1="467" y1="469" x2="481" y2="469" stroke="rgb(51,34,136)" stroke-width="1"/>
<line x1="481" y1="469" x2="495" y2="468" stroke="rgb(51,34,136)" stroke-width="1"/>
<line x1="495" y1="468" x2="509" y2="469" stroke="rgb(51,34,136)" stroke-width="1"/>
<line x1="509" y1="469" x2="523" y2="469" stroke="rgb(51,34,136)" stroke-width="1"/>
<line x1="523" y1="469" x2="537" y2="467" stroke="rgb(51,34,136)" stroke-width="1"/>
<line x1="537" y1="467" x2="551" y2="468" stroke="rgb(51,34,136)" stroke-width="1"/>
<line x1="551" y1="468" x2="565" y2="467" stroke="rgb(51,34,136)" stroke-width="1"/>
<line x1="565" y1="467" x2="579" y2="467" stroke="rgb(51,34,136)" stroke-width="1"/>
<line x1="579" y1="467" x2="593" y2="466" stroke="rgb(51,34,136)" stroke-width="1"/>
<line x1="593" y1="466" x2="607" y2="465" stroke="rgb(51,34,136)" stroke-width="1"/>
<line x1="607" y1="465" x2="621" y2="464" stroke="rgb(51,34,136)" stroke-width="1"/>
<line x1="621" y1="464" x2="635" y2="464" stroke="rgb(51,34,136)" stroke-width="1"/>
<line x1="635" y1="464" x2="649" y2="463" stroke="rgb(51,34,136)" stroke-width="1"/>
<line x1="649" y1="463" x2="663" y2="462" stroke="rgb(51,34,136)" stroke-width="1"/>
<line x1="663" y1="462" x2="677" y2="462" stroke="rgb(51,34,136)" stroke-width="1"/>
<line x1="677" y1="462" x2="691" y2="461" stroke="rgb(51,34,136)" stroke-width="1"/>
<line x1="691" y1="461" x2="705" y2="460" stroke="rgb(51,34,136)" stroke-width="1"/>
<line x1="705" y1="460" x2="719" y2="460" stroke="rgb(51,34,136)" stroke-width="1"/>
<line x1="719" y1="460" x2="733" y2="458" stroke="rgb(51,34,136)" stroke-width="1"/>
<line x1="733" y1="458" x2="747" y2="458" stroke="rgb(51,34,136)" stroke-width="1"/>
<line x1="747" y1="458" x2="761" y2="454" stroke="rgb(51,34,136)" stroke-width="1"/>
<line x1="761" y1="454" x2="775" y2="454" stroke="rgb(51,34,136)" stroke-width="1"/>
<line x1="775" y1="454" x2="789" y2="453" stroke="rgb(51,34,136)" stroke-width="1"/>
<line x1="789" y1="453" x2="803" y2="452" stroke="rgb(51,34,136)" stroke-width="1"/>
<line x1="803" y1="452" x2="817" y2="450" stroke="rgb(51,34,136)" stroke-width="1"/>
<line x1="817" y1="450" x2="831" y2="503" stroke="rgb(51,34,136)" stroke-width="1"/>
<line x1="33" y1="401" x2="47" y2="425" stroke="rgb(17,119,51)" stroke-width="1"/>
<line x1="47" y1="425" x2="61" y2="386" stroke="rgb(17,119,51)" stroke-width="1"/>
<line x1="61" y1="386" x2="75" y2="449" stroke="rgb(17,119,51)" stroke-width="1"/>
<line x1="75" y1="449" x2="89" y2="346" stroke="rgb(17,119,51)" stroke-width="1"/>
<line x1="89" y1="346" x2="103" y2="306" stroke="rgb(17,119,51)" stroke-width="1"/>
<line x1="103" y1="306" x2="117" y2="360" stroke="rgb(17,119,51)" stroke-width="1"/>
<line x1="117" y1="360" x2="131" y2="341" stroke="rgb(17,119,51)" stroke-width="1"/>
<line x1="131" y1="341" x2="145" y2="458" stroke="rgb(17,119,51)" stroke-width="1"/>
<line x1="145" y1="458" x2="159" y2="411" stroke="rgb(17,119,51)" stroke-width="1"/>
<line x1="159" y1="411" x2="173" y2="376" stroke="rgb(17,119,51)" stroke-width="1"/>
<line x1="173" y1="376" x2="187" y2="387" stroke="rgb(17,119,51)" stroke-width="1"/>
<line x1="187" y1="387" x2="201" y2="387" stroke="rgb(17,119,51)" stroke-width="1"/>
<line x1="201" y1="387" x2="215" y2="388" stroke="rgb(17,119,51)" stroke-width="1"/>
<line x1="215" y1="388" x2="229" y2="388" stroke="rgb(17,119,51)" stroke-width="1"/>
<line x1="229" y1="388" x2="243" y2="388" stroke="rgb(17,119,51)" stroke-width="1"/>
<line x1="243" y1="388" x2="257" y2="389" stroke="rgb(17,119,51)" stroke-width="1"/>
<line x1="257" y1="389" x2="271" y2="389" stroke="rgb(17,119,51)" stroke-width="1"/>
<line x1="271" y1="389" x2="285" y2="390" stroke="rgb(17,119,51)" stroke-width="1"/>
<line x1="285" y1="390" x2="299" y2="389" stroke="rgb(17,119,51)" stroke-width="1"/>
<line x1="299" y1="389" x2="313" y2="389" stroke="rgb(17,119,51)" stroke-width="1"/>
<line x1="313" y1="389" x2="327" y2="389" stroke="rgb(17,119,51)" stroke-width="1"/>
<line x1="327" y1="389" x2="341" y2="389" stroke="rgb(17,119,51)" stroke-width="1"/>
<line x1="341" y1="389" x2="355" y2="389" stroke="rgb(17,119,51)" stroke-width="1"/>
<line x1="355" y1="389" x2="369" y2="389" stroke="rgb(17,119,51)" stroke-width="1"/>
<line x1="369" y1="389" x2="383" y2="389" stroke="rgb(17,119,51)" stroke-width="1"/>
<line x1="383" y1="389" x2="397" y2="390" stroke="rgb(17,119,51)" stroke-width="1"/>
<line x1="397" y1="390" x2="411" y2="390" stroke="rgb(17,119,51)" stroke-width="1"/>
<line x1="411" y1="390" x2="425" y2="390" stroke="rgb(17,119,51)" stroke-width="1"/>
<line x1="425" y1="390" x2="439" y2="389" stroke="rgb(17,119,51)" stroke-width="1"/>
<line x1="439" y1="389" x2="453" y2="391" stroke="rgb(17,119,51)" stroke-width="1"/>
<line x1="453" y1="391" x2="467" y2="390" stroke="rgb(17,119,51)" stroke-width="1"/>
<line x1="467" y1="390" x2="481" y2="391" stroke="rgb(17,119,51)" stroke-width="1"/>
<line x1="481" y1="391" x2="495" y2="391" stroke="rgb(17,119,51)" stroke-width="1"/>
<line x1="495" y1="391" x2="509" y2="391" stroke="rgb(17,119,51)" stroke-width="1"/>
<line x1="509" y1="391" x2="523" y2="390" stroke="rgb(17,119,51)" stroke-width="1"/>
<line x1="523" y1="390" x2="537" y2="392" stroke="rgb(17,119,51)" stroke-width="1"/>
<line x1="537" y1="392" x2="551" y2="391" stroke="rgb(17,119,51)" stroke-width="1"/>
<line x1="551" y1="391" x2="565" y2="392" stroke="rgb(17,119,51)" stroke-width="1"/>
<line x1="565" y1="392" x2="579" y2="392" stroke="rgb(17,119,51)" stroke-width="1"/>
<line x1="579" y1="392" x2="593" y2="392" stroke="rgb(17,119,51)" stroke-width="1"/>
<line x1="593" y1="392" x2="607" y2="393" stroke="rgb(17,119,51)" stroke-width="1"/>
<line x1="607" y1="393" x2="621" y2="393" stroke="rgb(17,119,51)" stroke-width="1"/>
<line x1="621" y1="393" x2="635" y2="393" stroke="rgb(17,119,51)" stroke-width="1"/>
<line x1="635" y1="393" x2="649" y2="393" stroke="rgb(17,119,51)" stroke-width="1"/>
<line x1="649" y1="393" x2="663" y2="393" stroke="rgb(17,119,51)" stroke-width="1"/>
<line x1="663" y1="393" x2="677" y2="393" stroke="rgb(17,119,51)" stroke-width="1"/>
<line x1="677" y1="393" x2="691" y2="393" stroke="rgb(17,119,51)" stroke-width="1"/>
<line x1="691" y1="393" x2="705" y2="392" stroke="rgb(17,119,51)" stroke-width="1"/>
<line x1="705" y1="392" x2="719" y2="391" stroke="rgb(17,119,51)" stroke-width="1"/>
<line x1="719" y1="391" x2="733" y2="390" stroke="rgb(17,119,51)" stroke-width="1"/>
<line x1="733" y1="390" x2="747" y2="389" stroke="rgb(17,119,51)" stroke-width="1"/>
<line x1="747" y1="389" x2="761" y2="388" stroke="rgb(17,119,51)" stroke-width="1"/>
<line x1="761" y1="388" x2="775" y2="386" stroke="rgb(17,119,51)" stroke-width="1"/>
<line x1="775" y1="386" x2="789" y2="386" stroke="rgb(17,119,51)" stroke-width="1"/>
<line x1="789" y1="386" x2="803" y2="385" stroke="rgb(17,119,51)" stroke-width="1"/>
<line x1="803" y1="385" x2="817" y2="384" stroke="rgb(17,119,51)" stroke-width="1"/>
<line x1="817" y1="384" x2="831" y2="336" stroke="rgb(17,119,51)" stroke-width="1"/>
<line x1="33" y1="391" x2="47" y2="498" stroke="rgb(221,204,119)" stroke-width="1"/>
<line x1="47" y1="498" x2="61" y2="495" stroke="rgb(221,204,119)" stroke-width="1"/>
<line x1="61" y1="495" x2="75" y2="511" stroke="rgb(221,204,119)" stroke-width="1"/>
<line x1="75" y1="511" x2="89" y2="516" stroke="rgb(221,204,119)" stroke-width="1"/>
<line x1="89" y1="516" x2="103" y2="457" stroke="rgb(221,204,119)" stroke-width="1"/>
<line x1="103" y1="457" x2="117" y2="466" stroke="rgb(221,204,119)" stroke-width="1"/>
<line x1="117" y1="466" x2="131" y2="469" stroke="rgb(221,204,119)" stroke-width="1"/>
<line x1="131" y1="469" x2="145" y2="455" stroke="rgb(221,204,119)" stroke-width="1"/>
<line x1="145" y1="455" x2="159" y2="467" stroke="rgb(221,204,119)" stroke-width="1"/>
<line x1="159" y1="467" x2="173" y2="474" stroke="rgb(221,204,119)" stroke-width="1"/>
<line x1="173" y1="474" x2="187" y2="474" stroke="rgb(221,204,119)" stroke-width="1"/>
<line x1="187" y1="474" x2="201" y2="473" stroke="rgb(221,204,119)" stroke-width="1"/>
<line x1="201" y1="473" x2="215" y2="473" stroke="rgb(221,204,119)" stroke-width="1"/>
<line x1="215" y1="473" x2="229" y2="473" stroke="rgb(221,204,119)" stroke-width="1"/>
<line x1="229" y1="473" x2="243" y2="473" stroke="rgb(221,204,119)" stroke-width="1"/>
<line x1="243" y1="473" x2="257" y2="472" stroke="rgb(221,204,119)" stroke-width="1"/>
<line x1="257" y1="472" x2="271" y2="473" stroke="rgb(221,204,119)" stroke-width="1"/>
<line x1="271" y1="473" x2="285" y2="473" stroke="rgb(221,204,119)" stroke-width="1"/>
<line x1="285" y1="473" x2="299" y2="472" stroke="rgb(221,204,119)" stroke-width="1"/>
<line x1="299" y1="472" x2="313" y2="473" stroke="rgb(221,204,119)" stroke-width="1"/>
<line x1="313" y1="473" x2="327" y2="473" stroke="rgb(221,204,119)" stroke-width="1"/>
<line x1="327" y1="473" x2="341" y2="473" stroke="rgb(221,204,119)" stroke-width="1"/>
<line x1="341" y1="473" x2="355" y2="473" stroke="rgb(221,204,119)" stroke-width="1"/>
<line x1="355" y1="473" x2="369" y2="473" stroke="rgb(221,204,119)" stroke-width="1"/>
<line x1="369" y1="473" x2="383" y2="472" stroke="rgb(221,204,119)" stroke-width="1"/>
<line x1="383" y1="472" x2="397" y2="472" stroke="rgb(221,204,119)" stroke-width="1"/>
<line x1="397" y1="472" x2="411" y2="471" stroke="rgb(221,204,119)" stroke-width="1"/>
<line x1="411" y1="471" x2="425" y2="472" stroke="rgb(221,204,119)" stroke-width="1"/>
<line x1="425" y1="472" x2="439" y2="473" stroke="rgb(221,204,119)" stroke-width="1"/>
<line x1="439" y1="473" x2="453" y2="473" stroke="rgb(221,204,119)" stroke-width="1"/>
<line x1="453" y1="473" x2="467" y2="472" stroke="rgb(221,204,119)" stroke-width="1"/>
<line x1="467" y1="472" x2="481" y2="473" stroke="rgb(221,204,119)" stroke-width="1"/>
<line x1="481" y1="473" x2="495" y2="472" stroke="rgb(221,204,119)" stroke-width="1"/>
<line x1="495" y1="472" x2="509" y2="473" stroke="rgb(221,204,119)" stroke-width="1"/>
<line x1="509" y1="473" x2="523" y2="472" stroke="rgb(221,204,119)" stroke-width="1"/>
<line x1="523" y1="472" x2="537" y2="472" stroke="rgb(221,204,119)" stroke-width="1"/>
<line x1="537" y1="472" x2="551" y2="472" stroke="rgb(221,204,119)" stroke-width="1"/>
<line x1="551" y1="472" x2="565" y2="473" stroke="rgb(221,204,119)" stroke-width="1"/>
<line x1="565" y1="473" x2="579" y2="472" stroke="rgb(221,204,119)" stroke-width="1"/>
<line x1="579" y1="472" x2="593" y2="472" stroke="rgb(221,204,119)" stroke-width="1"/>
<line x1="593" y1="472" x2="607" y2="472" stroke="rgb(221,204,119)" stroke-width="1"/>
<line x1="607" y1="472" x2="621" y2="472" stroke="rgb(221,204,119)" stroke-width="1"/>
<line x1="621" y1="472" x2="635" y2="472" stroke="rgb(221,204,119)" stroke-width="1"/>
<line x1="635" y1="472" x2="649" y2="472" stroke="rgb(221,204,119)" stroke-width="1"/>
<line x1="649" y1="472" x2="663" y2="472" stroke="rgb(221,204,119)" stroke-width="1"/>
<line x1="663" y1="472" x2="677" y2="471" stroke="rgb(221,204,119)" stroke-width="1"/>
<line x1="677" y1="471" x2="691" y2="472" stroke="rgb(221,204,119)" stroke-width="1"/>
<line x1="691" y1="472" x2="705" y2="472" stroke="rgb(221,204,119)" stroke-width="1"/>
<line x1="705" y1="472" x2="719" y2="471" stroke="rgb(221,204,119)" stroke-width="1"/>
<line x1="719" y1="471" x2="733" y2="471" stroke="rgb(221,204,119)" stroke-width="1"/>
<line x1="733" y1="471" x2="747" y2="470" stroke="rgb(221,204,119)" stroke-width="1"/>
<line x1="747" y1="470" x2="761" y2="468" stroke="rgb(221,204,119)" stroke-width="1"/>
<line x1="761" y1="468" x2="775" y2="466" stroke="rgb(221,204,119)" stroke-width="1"/>
<line x1="775" y1="466" x2="789" y2="465" stroke="rgb(221,204,119)" stroke-width="1"/>
<line x1="789" y1="465" x2="803" y2="465" stroke="rgb(221,204,119)" stroke-width="1"/>
<line x1="803" y1="465" x2="817" y2="464" stroke="rgb(221,204,119)" stroke-width="1"/>
<line x1="817" y1="464" x2="831" y2="444" stroke="rgb(221,204,119)" stroke-width="1"/>
<rect width="26" height="83" x="834" y="40" style="fill:rgb(255,255,255);stroke:none"/>
<rect width="26" height="83" x="834" y="40" rx="0" ry="0" style="fill:none;stroke-width:1;stroke:rgb(192,192,192)"/>
<text x="837" y="55" fill="rgb(136,34,85)" font-family="Arial" font-size="12" font-weight="bold">%T</text>
<text x="837" y="75" fill="rgb(51,34,136)" font-family="Arial" font-size="12" font-weight="bold">%C</text>
<text x="837" y="95" fill="rgb(17,119,51)" font-family="Arial" font-size="12" font-weight="bold">%A</text>
<text x="837" y="115" fill="rgb(221,204,119)" font-family="Arial" font-size="12" font-weight="bold">%G</text>
</svg>
