<?xml version="1.0" standalone="no"?>
<!DOCTYPE svg PUBLIC "-//W3C//DTD SVG 1.1//EN" "http://www.w3.org/Graphics/SVG/1.1/DTD/svg11.dtd">
<svg width="800" height="600" version="1.1" xmlns="http://www.w3.org/2000/svg">
<rect width="800" height="600" x="0" y="0" style="fill:rgb(238,238,238);stroke:none"/>
<rect width="800" height="600" x="0" y="0" style="fill:rgb(255,255,255);stroke:none"/>
<text x="2" y="566" fill="rgb(0,0,0)" font-family="Arial" font-size="12">0</text>
<text x="2" y="499" fill="rgb(0,0,0)" font-family="Arial" font-size="12">20000</text>
<text x="2" y="431" fill="rgb(0,0,0)" font-family="Arial" font-size="12">40000</text>
<text x="2" y="363" fill="rgb(0,0,0)" font-family="Arial" font-size="12">60000</text>
<text x="2" y="296" fill="rgb(0,0,0)" font-family="Arial" font-size="12">80000</text>
<text x="2" y="228" fill="rgb(0,0,0)" font-family="Arial" font-size="12">100000</text>
<text x="2" y="160" fill="rgb(0,0,0)" font-family="Arial" font-size="12">120000</text>
<text x="2" y="92" fill="rgb(0,0,0)" font-family="Arial" font-size="12">140000</text>
<text x="275" y="30" fill="rgb(0,0,0)" font-family="Arial" font-size="12">Distribution of sequence lengths over all sequences</text>
<line x1="47" y1="560" x2="790" y2="560" stroke="rgb(0,0,0)" stroke-width="1"/>
<line x1="47" y1="560" x2="47" y2="40" stroke="rgb(0,0,0)" stroke-width="1"/>
<text x="340" y="595" fill="rgb(0,0,0)" font-family="Arial" font-size="12">Sequence Length (bp)</text>
<text x="39" y="575" fill="rgb(0,0,0)" font-family="Arial" font-size="12">30-34</text>
<rect width="16" height="520" x="63" y="40" style="fill:rgb(230,230,230);stroke:none"/>
<rect width="16" height="520" x="95" y="40" style="fill:rgb(230,230,230);stroke:none"/>
<text x="87" y="575" fill="rgb(0,0,0)" font-family="Arial" font-size="12">45-49</text>
<rect width="16" height="520" x="127" y="40" style="fill:rgb(230,230,230);stroke:none"/>
<text x="135" y="575" fill="rgb(0,0,0)" font-family="Arial" font-size="12">60-64</text>
<rect width="16" height="520" x="159" y="40" style="fill:rgb(230,230,230);stroke:none"/>
<rect width="16" height="520" x="191" y="40" style="fill:rgb(230,230,230);stroke:none"/>
<text x="183" y="575" fill="rgb(0,0,0)" font-family="Arial" font-size="12">75-79</text>
<rect width="16" height="520" x="223" y="40" style="fill:rgb(230,230,230);stroke:none"/>
<text x="231" y="575" fill="rgb(0,0,0)" font-family="Arial" font-size="12">90-94</text>
<rect width="16" height="520" x="255" y="40" style="fill:rgb(230,230,230);stroke:none"/>
<rect width="16" height="520" x="287" y="40" style="fill:rgb(230,230,230);stroke:none"/>
<text x="272" y="575" fill="rgb(0,0,0)" font-family="Arial" font-size="12">105-109</text>
<rect width="16" height="520" x="319" y="40" style="fill:rgb(230,230,230);stroke:none"/>
<rect width="16" height="520" x="351" y="40" style="fill:rgb(230,230,230);stroke:none"/>
<text x="336" y="575" fill="rgb(0,0,0)" font-family="Arial" font-size="12">125-129</text>
<rect width="16" height="520" x="383" y="40" style="fill:rgb(230,230,230);stroke:none"/>
<rect width="16" height="520" x="415" y="40" style="fill:rgb(230,230,230);stroke:none"/>
<text x="400" y="575" fill="rgb(0,0,0)" font-family="Arial" font-size="12">145-149</text>
<rect width="16" height="520" x="447" y="40" style="fill:rgb(230,230,230);stroke:none"/>
<rect width="16" height="520" x="479" y="40" style="fill:rgb(230,230,230);stroke:none"/>
<text x="464" y="575" fill="rgb(0,0,0)" font-family="Arial" font-size="12">165-169</text>
<rect width="16" height="520" x="511" y="40" style="fill:rgb(230,230,230);stroke:none"/>
<rect width="16" height="520" x="543" y="40" style="fill:rgb(230,230,230);stroke:none"/>
<text x="528" y="575" fill="rgb(0,0,0)" font-family="Arial" font-size="12">185-189</text>
<rect width="16" height="520" x="575" y="40" style="fill:rgb(230,230,230);stroke:none"/>
<rect width="16" height="520" x="607" y="40" style="fill:rgb(230,230,230);stroke:none"/>
<text x="592" y="575" fill="rgb(0,0,0)" font-family="Arial" font-size="12">205-209</text>
<rect width="16" height="520" x="639" y="40" style="fill:rgb(230,230,230);stroke:none"/>
<rect width="16" height="520" x="671" y="40" style="fill:rgb(230,230,230);stroke:none"/>
<text x="656" y="575" fill="rgb(0,0,0)" font-family="Arial" font-size="12">225-229</text>
<rect width="16" height="520" x="703" y="40" style="fill:rgb(230,230,230);stroke:none"/>
<rect width="16" height="520" x="735" y="40" style="fill:rgb(230,230,230);stroke:none"/>
<text x="720" y="575" fill="rgb(0,0,0)" font-family="Arial" font-size="12">245-249</text>
<line x1="47" y1="560" x2="790" y2="560" stroke="rgb(180,180,180)" stroke-width="1"/>
<line x1="47" y1="493" x2="790" y2="493" stroke="rgb(180,180,180)" stroke-width="1"/>
<line x1="47" y1="425" x2="790" y2="425" stroke="rgb(180,180,180)" stroke-width="1"/>
<line x1="47" y1="357" x2="790" y2="357" stroke="rgb(180,180,180)" stroke-width="1"/>
<line x1="47" y1="290" x2="790" y2="290" stroke="rgb(180,180,180)" stroke-width="1"/>
<line x1="47" y1="222" x2="790" y2="222" stroke="rgb(180,180,180)" stroke-width="1"/>
<line x1="47" y1="154" x2="790" y2="154" stroke="rgb(180,180,180)" stroke-width="1"/>
<line x1="47" y1="86" x2="790" y2="86" stroke="rgb(180,180,180)" stroke-width="1"/>
<line x1="55" y1="548" x2="71" y2="519" stroke="rgb(136,34,85)" stroke-width="1"/>
<line x1="71" y1="519" x2="87" y2="498" stroke="rgb(136,34,85)" stroke-width="1"/>
<line x1="87" y1="498" x2="103" y2="482" stroke="rgb(136,34,85)" stroke-width="1"/>
<line x1="103" y1="482" x2="119" y2="474" stroke="rgb(136,34,85)" stroke-width="1"/>
<line x1="119" y1="474" x2="135" y2="462" stroke="rgb(136,34,85)" stroke-width="1"/>
<line x1="135" y1="462" x2="151" y2="457" stroke="rgb(136,34,85)" stroke-width="1"/>
<line x1="151" y1="457" x2="167" y2="449" stroke="rgb(136,34,85)" stroke-width="1"/>
<line x1="167" y1="449" x2="183" y2="446" stroke="rgb(136,34,85)" stroke-width="1"/>
<line x1="183" y1="446" x2="199" y2="446" stroke="rgb(136,34,85)" stroke-width="1"/>
<line x1="199" y1="446" x2="215" y2="439" stroke="rgb(136,34,85)" stroke-width="1"/>
<line x1="215" y1="439" x2="231" y2="441" stroke="rgb(136,34,85)" stroke-width="1"/>
<line x1="231" y1="441" x2="247" y2="440" stroke="rgb(136,34,85)" stroke-width="1"/>
<line x1="247" y1="440" x2="263" y2="445" stroke="rgb(136,34,85)" stroke-width="1"/>
<line x1="263" y1="445" x2="279" y2="442" stroke="rgb(136,34,85)" stroke-width="1"/>
<line x1="279" y1="442" x2="295" y2="450" stroke="rgb(136,34,85)" stroke-width="1"/>
<line x1="295" y1="450" x2="311" y2="449" stroke="rgb(136,34,85)" stroke-width="1"/>
<line x1="311" y1="449" x2="327" y2="457" stroke="rgb(136,34,85)" stroke-width="1"/>
<line x1="327" y1="457" x2="343" y2="459" stroke="rgb(136,34,85)" stroke-width="1"/>
<line x1="343" y1="459" x2="359" y2="465" stroke="rgb(136,34,85)" stroke-width="1"/>
<line x1="359" y1="465" x2="375" y2="467" stroke="rgb(136,34,85)" stroke-width="1"/>
<line x1="375" y1="467" x2="391" y2="476" stroke="rgb(136,34,85)" stroke-width="1"/>
<line x1="391" y1="476" x2="407" y2="478" stroke="rgb(136,34,85)" stroke-width="1"/>
<line x1="407" y1="478" x2="423" y2="484" stroke="rgb(136,34,85)" stroke-width="1"/>
<line x1="423" y1="484" x2="439" y2="489" stroke="rgb(136,34,85)" stroke-width="1"/>
<line x1="439" y1="489" x2="455" y2="495" stroke="rgb(136,34,85)" stroke-width="1"/>
<line x1="455" y1="495" x2="471" y2="500" stroke="rgb(136,34,85)" stroke-width="1"/>
<line x1="471" y1="500" x2="487" y2="504" stroke="rgb(136,34,85)" stroke-width="1"/>
<line x1="487" y1="504" x2="503" y2="508" stroke="rgb(136,34,85)" stroke-width="1"/>
<line x1="503" y1="508" x2="519" y2="512" stroke="rgb(136,34,85)" stroke-width="1"/>
<line x1="519" y1="512" x2="535" y2="516" stroke="rgb(136,34,85)" stroke-width="1"/>
<line x1="535" y1="516" x2="551" y2="519" stroke="rgb(136,34,85)" stroke-width="1"/>
<line x1="551" y1="519" x2="567" y2="522" stroke="rgb(136,34,85)" stroke-width="1"/>
<line x1="567" y1="522" x2="583" y2="525" stroke="rgb(136,34,85)" stroke-width="1"/>
<line x1="583" y1="525" x2="599" y2="528" stroke="rgb(136,34,85)" stroke-width="1"/>
<line x1="599" y1="528" x2="615" y2="531" stroke="rgb(136,34,85)" stroke-width="1"/>
<line x1="615" y1="531" x2="631" y2="534" stroke="rgb(136,34,85)" stroke-width="1"/>
<line x1="631" y1="534" x2="647" y2="537" stroke="rgb(136,34,85)" stroke-width="1"/>
<line x1="647" y1="537" x2="663" y2="540" stroke="rgb(136,34,85)" stroke-width="1"/>
<line x1="663" y1="540" x2="679" y2="542" stroke="rgb(136,34,85)" stroke-width="1"/>
<line x1="679" y1="542" x2="695" y2="544" stroke="rgb(136,34,85)" stroke-width="1"/>
<line x1="695" y1="544" x2="711" y2="544" stroke="rgb(136,34,85)" stroke-width="1"/>
<line x1="711" y1="544" x2="727" y2="546" stroke="rgb(136,34,85)" stroke-width="1"/>
<line x1="727" y1="546" x2="743" y2="523" stroke="rgb(136,34,85)" stroke-width="1"/>
<line x1="743" y1="523" x2="759" y2="40" stroke="rgb(136,34,85)" stroke-width="1"/>
<rect width="110" height="23" x="680" y="40" style="fill:rgb(255,255,255);stroke:none"/>
<rect width="110" height="23" x="680" y="40" rx="0" ry="0" style="fill:none;stroke-width:1;stroke:rgb(192,192,192)"/>
<text x="683" y="55" fill="rgb(136,34,85)" font-family="Arial" font-size="12" font-weight="bold">Sequence Length</text>
</svg>
